<svg xmlns="http://www.w3.org/2000/svg" xmlns:xlink="http://www.w3.org/1999/xlink" zoomAndPan="magnify" preserveAspectRatio="xMidYMid meet" version="1.0" viewBox="21.53 93 331.93 189" width="80" height="60"><defs><g></g><clipPath id="6a1ecf9089"><path d="M 21.53125 93.007812 L 130.28125 93.007812 L 130.28125 282 L 21.53125 282 Z M 21.53125 93.007812 " clip-rule="nonzero"></path></clipPath><clipPath id="dc60d68f53"><path d="M 244.710938 93 L 353.460938 93 L 353.460938 281.984375 L 244.710938 281.984375 Z M 244.710938 93 " clip-rule="nonzero"></path></clipPath></defs><g fill="#ffffff" fill-opacity="1"><g transform="translate(101.539524, 232.386104)"><g><path d="M 24.246094 -58.582031 C 17.875 -63.183594 10.441406 -72.386719 23.183594 -75.574219 L 29.203125 -76.8125 C 30.972656 -77.34375 32.917969 -77.519531 34.6875 -77.695312 C 40.882812 -77.875 46.546875 -76.988281 52.210938 -76.28125 C 55.042969 -75.925781 57.875 -75.394531 60.527344 -74.335938 C 61.238281 -73.804688 62.300781 -73.804688 63.359375 -74.335938 C 65.308594 -74.863281 66.902344 -75.75 68.847656 -76.636719 C 70.085938 -77.34375 70.972656 -78.226562 71.679688 -79.464844 C 72.386719 -80.707031 73.449219 -81.765625 74.15625 -83.183594 C 75.042969 -84.597656 75.925781 -86.371094 76.105469 -87.609375 C 76.28125 -90.617188 77.34375 -93.625 78.757812 -96.632812 C 79.113281 -97.519531 79.113281 -98.402344 79.289062 -99.289062 C 79.289062 -99.644531 79.289062 -100.175781 79.464844 -100.527344 C 79.996094 -101.945312 79.464844 -102.652344 78.582031 -103.359375 C 76.28125 -105.128906 73.273438 -105.835938 70.085938 -106.191406 L 61.238281 -107.429688 C 51.503906 -108.136719 41.414062 -107.785156 30.617188 -103.890625 C 28.671875 -103.003906 26.546875 -102.476562 24.425781 -101.589844 C 17.34375 -97.695312 10.441406 -93.449219 5.308594 -87.078125 C -0.355469 -80.175781 -4.070312 -70.972656 0 -64.246094 C 2.125 -60.175781 4.957031 -56.28125 8.847656 -53.273438 C 12.210938 -50.441406 15.75 -47.964844 19.644531 -45.664062 C 26.015625 -41.945312 32.386719 -38.050781 37.875 -33.628906 C 41.238281 -30.972656 42.832031 -27.433594 44.070312 -23.363281 C 44.601562 -22.300781 44.070312 -20.882812 42.476562 -19.644531 C 40.351562 -17.699219 37.875 -16.28125 35.574219 -15.222656 C 32.386719 -13.628906 29.027344 -12.390625 25.839844 -10.972656 C 22.652344 -9.558594 19.292969 -8.847656 16.105469 -8.316406 C 14.335938 -7.964844 12.566406 -8.140625 11.148438 -8.671875 C 9.910156 -9.027344 9.378906 -9.910156 9.558594 -11.148438 C 9.734375 -12.921875 9.734375 -14.335938 10.089844 -15.929688 C 10.441406 -18.582031 11.679688 -20.707031 13.449219 -23.007812 L 16.636719 -27.433594 C 17.167969 -28.140625 17.34375 -28.671875 17.167969 -29.203125 C 16.992188 -30.085938 16.992188 -30.796875 16.992188 -31.679688 C 16.636719 -31.679688 16.105469 -31.859375 15.222656 -32.035156 L 17.523438 -33.273438 C 16.105469 -33.804688 15.398438 -32.210938 14.335938 -31.859375 C 11.679688 -32.210938 10.972656 -31.679688 9.558594 -29.027344 C 9.203125 -28.496094 8.847656 -27.785156 8.316406 -27.433594 C 5.488281 -24.953125 3.1875 -22.125 1.238281 -19.292969 C -1.0625 -16.28125 -2.65625 -13.273438 -3.894531 -10.265625 C -5.488281 -5.308594 -4.777344 -1.59375 -2.125 1.238281 C 0.886719 4.425781 5.488281 5.839844 10.265625 6.546875 C 13.449219 7.078125 16.636719 6.902344 20.351562 6.015625 C 21.945312 5.488281 23.183594 5.132812 24.601562 4.425781 C 26.195312 3.539062 27.609375 3.363281 29.203125 3.363281 C 31.148438 3.539062 33.273438 3.363281 35.21875 2.300781 C 39.289062 0.707031 43.007812 -1.414062 46.371094 -4.601562 C 47.253906 -5.308594 48.140625 -6.371094 48.671875 -7.078125 C 50.085938 -8.671875 51.148438 -10.621094 52.035156 -12.390625 C 55.042969 -17.699219 55.75 -22.832031 54.6875 -27.433594 C 52.917969 -34.160156 49.554688 -39.644531 44.777344 -43.890625 C 41.414062 -46.722656 38.230469 -49.554688 34.160156 -51.679688 C 33.628906 -51.855469 33.097656 -52.210938 32.566406 -52.566406 C 29.910156 -54.6875 27.078125 -56.8125 24.246094 -58.582031 Z M 24.246094 -58.582031 "></path></g></g></g><g fill="#ffffff" fill-opacity="1"><g transform="translate(172.682672, 232.386104)"><g><path d="M 4.246094 -57.34375 C 4.070312 -56.8125 4.246094 -56.28125 4.070312 -55.925781 C 5.839844 -59.289062 6.902344 -63.007812 9.558594 -66.546875 C 9.378906 -65.308594 9.027344 -64.070312 8.671875 -62.828125 L 1.59375 -44.777344 C -3.1875 -32.210938 -6.546875 -20 -7.078125 -8.140625 C -7.257812 -3.714844 -7.257812 0.886719 -8.316406 5.664062 C -8.671875 6.902344 -7.078125 9.027344 -6.195312 9.203125 C -4.070312 9.558594 -1.59375 9.378906 1.0625 9.027344 C 3.363281 8.496094 5.664062 7.433594 7.964844 6.015625 C 9.203125 5.132812 10.265625 3.894531 11.859375 3.714844 C 12.210938 3.714844 12.742188 3.1875 13.097656 2.65625 C 15.222656 0.707031 15.929688 -1.414062 16.460938 -3.714844 C 17.167969 -6.546875 18.050781 -9.558594 19.644531 -12.566406 C 21.0625 -15.398438 22.125 -18.230469 23.363281 -21.0625 C 24.425781 -23.539062 25.664062 -26.015625 27.609375 -28.140625 C 30.617188 -31.503906 32.917969 -35.042969 34.6875 -38.761719 C 36.105469 -41.414062 37.699219 -43.890625 39.820312 -46.191406 C 41.945312 -48.496094 43.714844 -50.972656 44.953125 -53.449219 C 46.371094 -56.105469 48.140625 -58.40625 50.441406 -60.527344 C 51.855469 -61.589844 52.917969 -63.007812 53.804688 -64.246094 L 68.492188 -85.308594 C 75.574219 -86.722656 64.421875 -66.722656 63.007812 -58.40625 C 61.945312 -54.511719 60.882812 -50.617188 59.644531 -46.902344 L 60 -46.902344 C 60.882812 -49.378906 61.769531 -52.035156 62.476562 -54.511719 C 62.828125 -54.511719 63.007812 -54.511719 63.183594 -54.6875 C 61.945312 -52.035156 62.828125 -50.085938 61.414062 -47.433594 C 60 -44.953125 60.527344 -42.476562 58.40625 -40.175781 C 58.757812 -39.46875 59.46875 -39.113281 59.289062 -38.582031 C 59.113281 -37.34375 58.757812 -35.929688 58.226562 -34.6875 C 57.34375 -32.742188 57.34375 -30.972656 57.875 -29.910156 C 58.9375 -28.140625 56.457031 -22.832031 56.105469 -20.53125 C 55.925781 -19.644531 55.75 -18.761719 55.75 -18.050781 C 56.28125 -14.867188 56.8125 -11.503906 57.519531 -8.496094 C 58.757812 -2.476562 65.308594 -2.125 71.148438 -4.246094 C 73.804688 -5.308594 76.457031 -6.726562 79.113281 -8.140625 C 80.527344 -8.847656 81.765625 -9.910156 82.828125 -11.328125 C 84.246094 -13.449219 85.660156 -15.222656 87.078125 -17.167969 C 88.140625 -18.761719 89.199219 -20.351562 90.085938 -21.945312 C 90.261719 -22.300781 90.441406 -23.007812 90.085938 -23.183594 C 89.378906 -24.070312 89.199219 -25.308594 89.199219 -26.902344 C 85.660156 -24.070312 83.714844 -20.351562 79.644531 -17.875 L 78.582031 -20.351562 C 78.582031 -20.707031 78.40625 -21.0625 78.226562 -21.414062 C 77.34375 -22.652344 79.113281 -27.253906 79.820312 -29.378906 C 80.527344 -31.328125 80.527344 -33.097656 79.996094 -34.867188 C 79.820312 -35.398438 79.996094 -36.105469 80.175781 -36.8125 C 80.527344 -38.40625 81.238281 -39.820312 81.414062 -41.414062 C 82.121094 -44.246094 82.652344 -47.253906 83.714844 -50.265625 C 84.246094 -51.679688 83.890625 -53.097656 84.597656 -54.511719 C 85.839844 -56.636719 86.371094 -58.757812 87.078125 -60.707031 C 88.671875 -65.660156 95.75 -78.050781 97.34375 -82.828125 C 98.933594 -88.316406 99.820312 -93.625 99.113281 -98.402344 C 98.582031 -101.058594 96.988281 -102.652344 94.15625 -103.183594 C 90.617188 -103.714844 86.546875 -102.652344 82.652344 -102.121094 C 81.945312 -101.945312 80.882812 -101.589844 80.175781 -101.589844 C 78.757812 -101.765625 77.34375 -101.058594 76.105469 -99.996094 L 74.15625 -98.582031 C 67.078125 -94.15625 56.28125 -80.882812 51.503906 -74.6875 C 47.609375 -69.554688 44.246094 -64.246094 40.707031 -59.113281 C 31.503906 -48.496094 34.6875 -55.398438 37.875 -69.378906 C 38.582031 -72.5625 38.582031 -75.574219 40.53125 -78.9375 C 41.0625 -79.644531 40.882812 -80.527344 40.707031 -81.058594 C 40.175781 -82.828125 39.644531 -84.597656 38.761719 -86.015625 C 36.8125 -89.910156 32.386719 -91.148438 27.609375 -91.5 C 24.777344 -91.679688 21.59375 -90.792969 18.9375 -91.324219 C 17.34375 -91.5 16.636719 -90.972656 15.929688 -89.199219 C 14.867188 -86.546875 13.804688 -83.890625 12.921875 -81.238281 Z M 4.246094 -57.34375 "></path></g></g></g><g fill="#ffffff" fill-opacity="1"><g transform="translate(276.40834, 232.386104)"><g></g></g></g><path fill="#ffffff" d="M 89.179688 280.410156 C 89.179688 280.410156 88.980469 280.320312 88.980469 280.320312 C 88.980469 280.320312 89.070312 280.355469 89.179688 280.410156 Z M 89.179688 280.410156 " fill-opacity="1" fill-rule="nonzero"></path><g clip-path="url(#6a1ecf9089)"><path fill="#ffffff" d="M 22.523438 192.695312 C 22.71875 193.933594 22.882812 195.027344 22.988281 195.601562 C 31.71875 196.160156 44.417969 196.085938 47.703125 205.941406 C 47.6875 205.78125 48.566406 209.511719 48.675781 209.855469 C 49.410156 217.265625 50.039062 224.609375 51.011719 232.074219 C 51.0625 232.523438 51.152344 232.9375 51.207031 233.367188 C 51.460938 240.0625 52.464844 246.703125 55.160156 252.75 C 61.519531 266.734375 74.863281 275.617188 88.226562 281.953125 L 89.734375 278.6875 C 83.214844 275.636719 76.894531 272.101562 71.34375 267.648438 C 68.21875 265.226562 65.648438 262.695312 63.546875 260.09375 C 66.152344 262.875 69.097656 265.351562 72.332031 267.578125 C 78.042969 272.152344 84.742188 275.601562 91.640625 278.273438 C 91.335938 279.746094 91.011719 281.273438 91.011719 281.273438 C 91.046875 281.273438 89.699219 280.644531 89.179688 280.410156 C 89.519531 280.570312 91.011719 281.273438 91.011719 281.273438 C 91.011719 281.273438 91.371094 279.726562 91.675781 278.292969 C 92.84375 278.742188 94.011719 279.191406 95.195312 279.601562 C 95.285156 279.226562 95.375 278.847656 95.449219 278.453125 L 99.148438 279.710938 L 99.382812 279.800781 L 99.382812 279.546875 C 99.382812 279.546875 100.316406 270.609375 100.316406 270.609375 C 100.316406 270.609375 100.332031 270.429688 100.332031 270.429688 C 86.824219 264.921875 78.742188 254.691406 78.597656 239.917969 C 78.4375 233.5625 78.816406 226.222656 78.90625 219.796875 C 79.75 208.347656 76.355469 194.777344 65.054688 189.445312 C 63.042969 188.421875 60.960938 187.667969 58.839844 187.058594 C 63.90625 185.425781 68.703125 183.039062 72.796875 179.324219 C 74.039062 178.136719 75.113281 176.898438 76.03125 175.589844 C 79.136719 172.394531 81.492188 168.375 82.675781 163.207031 C 85.945312 152.6875 84.382812 141.109375 87.886719 130.808594 C 93.957031 113.953125 111.8125 109.664062 128.050781 109.789062 L 128.714844 109.789062 C 128.714844 109.789062 128.855469 109.109375 128.855469 109.109375 L 129.988281 103.882812 L 130.203125 102.863281 C 126.109375 102.71875 122.011719 102.683594 117.917969 102.753906 C 118.007812 101.675781 118.617188 94.480469 118.617188 94.480469 L 118.746094 93.007812 C 118.746094 93.007812 117.289062 93.132812 117.289062 93.132812 C 96.4375 95.160156 66.511719 100.332031 51.765625 117.398438 C 48.421875 120.757812 45.800781 124.722656 44.472656 129.460938 C 41.832031 138.363281 43.644531 148.488281 44.292969 157.535156 C 45.136719 163.5625 44.867188 168.230469 43.679688 172 C 43.628906 172.125 43.574219 172.25 43.519531 172.375 C 39.191406 177.761719 31.828125 180.5625 22.074219 183.808594 L 21.535156 186.71875 C 21.625 187.328125 21.769531 188.136719 21.910156 189.085938 L 22.488281 192.710938 Z M 95.140625 277.96875 L 95 277.914062 C 93.976562 277.554688 92.988281 277.199219 92 276.839844 C 92.070312 276.480469 92.144531 276.210938 92.160156 276.085938 C 93.128906 276.660156 94.136719 277.199219 95.160156 277.699219 C 95.160156 277.789062 95.160156 277.878906 95.140625 277.96875 Z M 91.261719 270.375 C 90.238281 269.800781 89.25 269.191406 88.28125 268.546875 C 89.269531 269.101562 90.257812 269.625 91.28125 270.109375 C 91.28125 270.199219 91.28125 270.289062 91.261719 270.378906 Z M 91.207031 271.09375 C 88.480469 269.945312 85.855469 268.707031 83.378906 267.398438 C 82.425781 266.25 81.597656 265.0625 80.878906 263.863281 C 81.113281 264.078125 81.328125 264.308594 81.582031 264.527344 C 84.457031 267.164062 87.742188 269.335938 91.226562 271.042969 C 91.226562 271.058594 91.226562 271.09375 91.226562 271.113281 Z M 91.53125 271.167969 C 92.035156 271.398438 92.539062 271.632812 93.039062 271.847656 C 92.539062 271.652344 92.035156 271.4375 91.53125 271.21875 C 91.53125 271.203125 91.53125 271.183594 91.53125 271.167969 Z M 49.554688 152.832031 C 49.554688 152.832031 48.945312 143.515625 48.945312 143.515625 C 47.488281 128.3125 51.65625 118.800781 60.566406 112.015625 C 63.671875 110.113281 67.210938 108.371094 71.144531 106.757812 C 55.535156 114.472656 47.8125 125.476562 49.984375 145.832031 C 49.984375 145.832031 50.652344 155.128906 50.652344 155.128906 C 52.160156 167.011719 49.464844 173.722656 43.554688 178.496094 C 43.410156 178.570312 43.269531 178.640625 43.125 178.710938 C 44.148438 177.222656 44.976562 175.609375 45.585938 173.8125 C 49.214844 168.964844 50.703125 162.414062 49.574219 152.832031 Z M 63.980469 179.503906 C 60.996094 181.65625 57.351562 183.273438 53.597656 184.636719 C 52.789062 184.832031 51.960938 185.03125 51.152344 185.191406 C 50.703125 185.101562 50.253906 185.03125 49.789062 184.941406 C 51.496094 184.3125 53.148438 183.613281 54.765625 182.824219 C 59.6875 181.261719 64.375 179.054688 68.433594 175.75 C 67.15625 177.097656 65.683594 178.371094 63.980469 179.503906 Z M 76.910156 261.007812 C 75.332031 258.726562 74.109375 256.089844 73.191406 253.109375 C 73.714844 254.207031 74.308594 255.28125 74.988281 256.324219 C 75.527344 258.027344 76.230469 259.660156 77.074219 261.222656 C 77.019531 261.152344 76.964844 261.097656 76.929688 261.027344 Z M 63.242188 194.148438 C 62.902344 194.003906 62.542969 193.863281 62.183594 193.734375 C 61.464844 193.324219 60.710938 192.929688 59.882812 192.570312 C 58.105469 191.707031 56.058594 190.988281 53.738281 190.414062 C 56.273438 190.808594 58.5 191.382812 60.457031 192.101562 C 61.480469 192.730469 62.414062 193.414062 63.242188 194.148438 Z M 80.699219 105.519531 C 83.558594 104.511719 86.46875 103.652344 89.394531 102.898438 C 87.6875 103.667969 86.054688 104.511719 84.492188 105.464844 C 73.03125 108.695312 64.015625 113.414062 58.300781 119.375 C 63.1875 113.363281 70.730469 109.144531 80.683594 105.519531 Z M 77.59375 261.941406 C 76.660156 260.308594 75.921875 258.621094 75.367188 256.898438 C 75.816406 257.6875 76.320312 258.441406 76.855469 259.195312 C 77.628906 261.0625 78.582031 262.875 79.765625 264.632812 C 79.011719 263.773438 78.292969 262.875 77.613281 261.941406 Z M 72.332031 219.742188 L 72.4375 217.625 C 72.511719 216.460938 72.527344 215.347656 72.511719 214.269531 C 72.5625 211.578125 72.511719 208.972656 72.257812 206.496094 C 72.886719 207.824219 73.371094 209.226562 73.730469 210.699219 C 74.539062 218.289062 73.589844 227.175781 73.910156 235.96875 C 73.550781 239.578125 73.335938 243.167969 73.460938 246.628906 C 71.71875 237.945312 72.421875 228.464844 72.332031 219.761719 Z M 48.371094 199.246094 C 48.40625 199.355469 48.460938 199.460938 48.511719 199.570312 C 48.40625 199.40625 48.28125 199.246094 48.171875 199.085938 C 48.242188 199.136719 48.316406 199.191406 48.386719 199.246094 Z M 84.277344 268.421875 C 86.519531 269.535156 88.835938 270.539062 91.171875 271.472656 C 91.171875 271.542969 91.171875 271.617188 91.171875 271.6875 C 88.945312 270.734375 86.699219 269.710938 84.472656 268.617188 C 84.417969 268.546875 84.347656 268.492188 84.292969 268.4375 Z M 73.785156 248.085938 C 73.660156 245.949219 73.695312 243.777344 73.820312 241.585938 C 73.820312 244.636719 74.019531 247.671875 74.484375 250.667969 C 74.21875 249.808594 73.984375 248.945312 73.785156 248.085938 Z M 113.589844 100.871094 C 114.21875 100.78125 114.863281 100.671875 115.492188 100.601562 L 115.492188 100.78125 C 114.847656 100.816406 114.21875 100.832031 113.589844 100.871094 Z M 115.90625 95.824219 C 115.90625 95.824219 115.90625 95.734375 115.90625 95.699219 C 115.941406 95.699219 115.976562 95.699219 116.03125 95.699219 L 116.03125 95.824219 C 116.03125 95.824219 115.941406 95.824219 115.886719 95.824219 Z M 53.542969 117.292969 C 51.78125 119.554688 50.34375 122.066406 49.394531 124.902344 C 46.285156 133.660156 47.578125 143.855469 47.742188 152.921875 C 48.117188 157.371094 47.9375 161.015625 47.292969 164.136719 C 47.257812 163.078125 47.183594 161.984375 47.039062 160.835938 C 46.589844 155.273438 45.421875 147.105469 45.316406 141.648438 C 44.867188 131.972656 47.488281 124.5625 52.140625 118.746094 C 52.589844 118.261719 53.058594 117.777344 53.5625 117.308594 Z M 62.433594 256.753906 C 63.332031 258.152344 64.320312 259.480469 65.363281 260.738281 C 63.636719 258.890625 62.109375 256.898438 60.746094 254.78125 C 61.285156 255.460938 61.859375 256.109375 62.433594 256.753906 Z M 74.359375 267.128906 C 79.15625 270.304688 84.851562 273.195312 91.550781 275.851562 L 91.585938 275.671875 C 91.785156 275.796875 91.964844 275.921875 92.160156 276.03125 C 92.160156 276.046875 92.035156 276.585938 92 276.800781 C 88.53125 275.511719 85.335938 274.164062 82.371094 272.726562 C 79.570312 271.042969 76.875 269.191406 74.378906 267.128906 Z M 86.394531 270.609375 C 86.179688 270.414062 86 270.179688 85.785156 269.964844 C 87.632812 270.683594 89.503906 271.363281 91.371094 271.972656 C 91.40625 271.832031 91.425781 271.6875 91.460938 271.5625 C 92.285156 271.882812 93.128906 272.207031 93.976562 272.511719 C 93.976562 272.945312 93.957031 273.375 93.957031 273.839844 C 91.695312 273.015625 89.414062 272.117188 87.148438 271.128906 C 86.898438 270.953125 86.648438 270.773438 86.414062 270.59375 Z M 94.296875 271.882812 C 93.398438 271.472656 92.539062 271.003906 91.675781 270.539062 C 91.710938 270.304688 91.765625 270.054688 91.800781 269.820312 L 91.65625 269.75 C 87.347656 267.46875 83.414062 264.507812 80.199219 260.917969 C 79.625 260.308594 79.101562 259.679688 78.617188 259.050781 C 77.683594 256.574219 77.074219 254.027344 76.675781 251.40625 C 78.242188 255.675781 80.664062 259.699219 84.367188 263.269531 C 87.851562 266.734375 92 269.480469 96.417969 271.488281 C 96.363281 272.011719 96.347656 272.53125 96.328125 273.105469 C 95.679688 272.855469 95.054688 272.601562 94.40625 272.351562 C 94.40625 272.226562 94.441406 272.101562 94.460938 271.972656 L 94.316406 271.902344 Z M 79.535156 133.75 C 80.59375 117.847656 91.875 109.878906 106.40625 106.34375 C 108.488281 106.109375 110.554688 105.914062 112.636719 105.75 C 96.617188 108.480469 83 116.988281 79.535156 133.75 Z M 86.789062 275.222656 C 88.460938 275.90625 90.167969 276.550781 91.925781 277.179688 C 91.890625 277.375 91.855469 277.484375 91.800781 277.753906 C 90.132812 276.945312 88.460938 276.121094 86.789062 275.222656 Z M 95.070312 279.28125 C 93.992188 278.792969 92.914062 278.292969 91.835938 277.773438 C 91.875 277.574219 91.925781 277.375 91.964844 277.199219 C 92.953125 277.539062 93.921875 277.898438 94.925781 278.238281 L 95.160156 278.308594 C 95.140625 278.632812 95.105469 278.9375 95.070312 279.28125 Z M 99.882812 270.71875 L 99.09375 279.226562 L 95.574219 278.058594 C 95.609375 277.84375 95.664062 277.628906 95.699219 277.429688 L 95.554688 277.359375 C 94.226562 276.625 92.953125 275.816406 91.710938 274.953125 L 91.855469 273.964844 C 91.191406 273.609375 90.527344 273.25 89.898438 272.871094 C 91.316406 273.320312 92.753906 273.75 94.191406 274.144531 C 94.261719 273.679688 94.335938 273.160156 94.40625 272.65625 C 95.125 272.90625 95.84375 273.160156 96.5625 273.410156 C 96.6875 272.726562 96.832031 271.972656 96.921875 271.238281 L 96.777344 271.167969 C 92.414062 268.996094 88.425781 266.105469 85.121094 262.570312 C 79.046875 256.214844 76.855469 248.585938 76.210938 240.636719 C 76.265625 238.625 76.390625 236.617188 76.535156 234.625 C 76.585938 236.488281 76.695312 238.300781 76.894531 240.042969 C 77.648438 255.101562 86.199219 265.28125 99.921875 270.734375 Z M 127.347656 108.066406 C 106.871094 108.121094 87.328125 115.625 84.742188 138.472656 C 83.898438 146.371094 83.699219 155.253906 81.5625 162.863281 C 81.023438 165.269531 80.214844 167.421875 79.210938 169.363281 C 83.46875 157.585938 80.304688 143.085938 83.609375 131.128906 C 88.710938 114.332031 105.417969 108.480469 121.511719 107.097656 L 122.425781 107.007812 C 122.535156 106.289062 122.640625 105.375 122.769531 104.496094 C 124.546875 104.496094 126.324219 104.496094 128.121094 104.546875 C 127.886719 105.660156 127.546875 107.292969 127.367188 108.066406 Z M 127.347656 108.066406 " fill-opacity="1" fill-rule="nonzero"></path></g><path fill="#ffffff" d="M 285.8125 94.582031 C 285.8125 94.582031 286.007812 94.671875 286.007812 94.671875 C 286.007812 94.671875 285.917969 94.636719 285.8125 94.582031 Z M 285.8125 94.582031 " fill-opacity="1" fill-rule="nonzero"></path><g clip-path="url(#dc60d68f53)"><path fill="#ffffff" d="M 352.46875 182.296875 C 352.269531 181.058594 352.109375 179.964844 352 179.390625 C 343.269531 178.832031 330.570312 178.90625 327.285156 169.050781 C 327.304688 169.210938 326.421875 165.480469 326.316406 165.136719 C 325.578125 157.726562 324.949219 150.382812 323.980469 142.917969 C 323.925781 142.46875 323.835938 142.054688 323.78125 141.625 C 323.53125 134.929688 322.523438 128.289062 319.832031 122.242188 C 313.472656 108.257812 300.125 99.375 286.761719 93.039062 L 285.253906 96.304688 C 291.773438 99.355469 298.097656 102.890625 303.648438 107.34375 C 306.773438 109.765625 309.339844 112.296875 311.441406 114.898438 C 308.839844 112.117188 305.890625 109.640625 302.660156 107.414062 C 296.949219 102.839844 290.246094 99.390625 283.351562 96.71875 C 283.65625 95.246094 283.980469 93.71875 283.980469 93.71875 C 283.941406 93.71875 285.289062 94.347656 285.8125 94.582031 C 285.46875 94.421875 283.980469 93.71875 283.980469 93.71875 C 283.980469 93.71875 283.621094 95.265625 283.3125 96.699219 C 282.148438 96.25 280.980469 95.800781 279.792969 95.390625 C 279.703125 95.765625 279.613281 96.144531 279.542969 96.539062 L 275.84375 95.28125 L 275.609375 95.191406 L 275.609375 95.441406 C 275.609375 95.441406 274.675781 104.382812 274.675781 104.382812 C 274.675781 104.382812 274.65625 104.5625 274.65625 104.5625 C 288.164062 110.070312 296.246094 120.300781 296.390625 135.074219 C 296.550781 141.429688 296.175781 148.769531 296.085938 155.195312 C 295.242188 166.644531 298.636719 180.214844 309.933594 185.546875 C 311.945312 186.570312 314.027344 187.324219 316.148438 187.933594 C 311.082031 189.566406 306.289062 191.953125 302.191406 195.667969 C 300.953125 196.855469 299.875 198.09375 298.960938 199.402344 C 295.851562 202.597656 293.5 206.617188 292.3125 211.785156 C 289.042969 222.304688 290.605469 233.882812 287.105469 244.183594 C 281.03125 261.039062 263.179688 265.328125 246.941406 265.203125 L 246.277344 265.203125 C 246.277344 265.203125 246.132812 265.882812 246.132812 265.882812 L 245 271.105469 L 244.785156 272.128906 C 248.882812 272.273438 252.976562 272.308594 257.070312 272.238281 C 256.980469 273.316406 256.371094 280.511719 256.371094 280.511719 L 256.246094 281.984375 C 256.246094 281.984375 257.699219 281.859375 257.699219 281.859375 C 278.554688 279.832031 308.480469 274.660156 323.226562 257.59375 C 326.566406 254.234375 329.1875 250.269531 330.519531 245.53125 C 333.160156 236.628906 331.34375 226.503906 330.699219 217.457031 C 329.855469 211.429688 330.125 206.761719 331.308594 202.992188 C 331.363281 202.867188 331.417969 202.742188 331.46875 202.613281 C 335.800781 197.230469 343.164062 194.429688 352.917969 191.183594 L 353.457031 188.273438 C 353.367188 187.664062 353.222656 186.855469 353.078125 185.90625 L 352.503906 182.277344 Z M 279.847656 97.023438 L 279.992188 97.078125 C 281.015625 97.4375 282.003906 97.792969 282.992188 98.152344 C 282.917969 98.511719 282.847656 98.78125 282.828125 98.90625 C 281.859375 98.332031 280.851562 97.792969 279.828125 97.292969 C 279.828125 97.203125 279.828125 97.113281 279.847656 97.023438 Z M 283.726562 104.613281 C 284.75 105.1875 285.738281 105.800781 286.710938 106.445312 C 285.722656 105.890625 284.734375 105.367188 283.710938 104.882812 C 283.710938 104.792969 283.710938 104.703125 283.726562 104.613281 Z M 283.78125 103.898438 C 286.511719 105.046875 289.132812 106.285156 291.613281 107.59375 C 292.566406 108.742188 293.390625 109.929688 294.109375 111.128906 C 293.875 110.914062 293.660156 110.683594 293.410156 110.464844 C 290.535156 107.828125 287.246094 105.65625 283.761719 103.949219 C 283.761719 103.933594 283.761719 103.898438 283.761719 103.878906 Z M 283.457031 103.824219 C 282.953125 103.59375 282.453125 103.359375 281.949219 103.144531 C 282.453125 103.339844 282.953125 103.554688 283.457031 103.769531 C 283.457031 103.789062 283.457031 103.808594 283.457031 103.824219 Z M 325.433594 222.160156 C 325.433594 222.160156 326.046875 231.476562 326.046875 231.476562 C 327.5 246.679688 323.332031 256.191406 314.425781 262.976562 C 311.316406 264.878906 307.777344 266.621094 303.84375 268.234375 C 319.453125 260.519531 327.175781 249.515625 325.003906 229.160156 C 325.003906 229.160156 324.339844 219.863281 324.339844 219.863281 C 322.832031 207.980469 325.523438 201.269531 331.433594 196.496094 C 331.578125 196.421875 331.722656 196.351562 331.867188 196.277344 C 330.839844 197.769531 330.015625 199.382812 329.40625 201.179688 C 325.777344 206.023438 324.285156 212.578125 325.417969 222.160156 Z M 311.011719 195.488281 C 313.992188 193.335938 317.640625 191.71875 321.394531 190.355469 C 322.203125 190.160156 323.027344 189.960938 323.835938 189.800781 C 324.285156 189.890625 324.734375 189.960938 325.203125 190.050781 C 323.496094 190.679688 321.84375 191.378906 320.226562 192.167969 C 315.304688 193.730469 310.617188 195.9375 306.558594 199.242188 C 307.832031 197.894531 309.304688 196.621094 311.011719 195.488281 Z M 298.078125 113.984375 C 299.660156 116.265625 300.882812 118.902344 301.796875 121.882812 C 301.277344 120.785156 300.683594 119.710938 300 118.667969 C 299.460938 116.964844 298.761719 115.332031 297.917969 113.769531 C 297.972656 113.839844 298.023438 113.894531 298.0625 113.964844 Z M 311.75 180.84375 C 312.089844 180.988281 312.449219 181.128906 312.808594 181.257812 C 313.527344 181.667969 314.28125 182.0625 315.105469 182.421875 C 316.886719 183.285156 318.933594 184.003906 321.25 184.578125 C 318.71875 184.183594 316.488281 183.605469 314.53125 182.890625 C 313.507812 182.261719 312.574219 181.578125 311.75 180.84375 Z M 294.289062 269.472656 C 291.433594 270.480469 288.523438 271.339844 285.59375 272.09375 C 287.300781 271.324219 288.9375 270.480469 290.5 269.527344 C 301.957031 266.296875 310.976562 261.578125 316.6875 255.617188 C 311.800781 261.628906 304.257812 265.847656 294.308594 269.472656 Z M 297.394531 113.050781 C 298.332031 114.683594 299.066406 116.371094 299.625 118.09375 C 299.175781 117.304688 298.671875 116.550781 298.132812 115.796875 C 297.359375 113.929688 296.410156 112.117188 295.222656 110.359375 C 295.976562 111.21875 296.695312 112.117188 297.378906 113.050781 Z M 302.660156 155.25 L 302.550781 157.367188 C 302.480469 158.53125 302.460938 159.644531 302.480469 160.722656 C 302.425781 163.414062 302.480469 166.019531 302.730469 168.496094 C 302.101562 167.167969 301.617188 165.765625 301.257812 164.292969 C 300.449219 156.703125 301.402344 147.816406 301.078125 139.023438 C 301.4375 135.414062 301.652344 131.824219 301.527344 128.359375 C 303.269531 137.046875 302.570312 146.523438 302.660156 155.230469 Z M 326.621094 175.746094 C 326.585938 175.636719 326.53125 175.53125 326.476562 175.421875 C 326.585938 175.585938 326.710938 175.746094 326.816406 175.90625 C 326.746094 175.855469 326.675781 175.800781 326.601562 175.746094 Z M 290.714844 106.570312 C 288.46875 105.457031 286.152344 104.453125 283.816406 103.519531 C 283.816406 103.449219 283.816406 103.375 283.816406 103.304688 C 286.042969 104.257812 288.289062 105.277344 290.515625 106.375 C 290.570312 106.445312 290.644531 106.5 290.695312 106.554688 Z M 301.203125 126.90625 C 301.332031 129.042969 301.292969 131.214844 301.167969 133.40625 C 301.167969 130.355469 300.972656 127.320312 300.503906 124.324219 C 300.773438 125.183594 301.007812 126.046875 301.203125 126.90625 Z M 261.402344 274.121094 C 260.773438 274.210938 260.125 274.320312 259.496094 274.390625 L 259.496094 274.210938 C 260.144531 274.175781 260.773438 274.160156 261.402344 274.121094 Z M 259.082031 279.167969 C 259.082031 279.167969 259.082031 279.257812 259.082031 279.292969 C 259.046875 279.292969 259.011719 279.292969 258.957031 279.292969 L 258.957031 279.167969 C 258.957031 279.167969 259.046875 279.167969 259.101562 279.167969 Z M 321.449219 257.699219 C 323.207031 255.4375 324.644531 252.925781 325.597656 250.089844 C 328.703125 241.332031 327.410156 231.136719 327.25 222.070312 C 326.871094 217.621094 327.050781 213.976562 327.699219 210.855469 C 327.734375 211.914062 327.804688 213.007812 327.949219 214.15625 C 328.398438 219.71875 329.566406 227.886719 329.675781 233.34375 C 330.125 243.019531 327.5 250.429688 322.847656 256.246094 C 322.398438 256.730469 321.933594 257.214844 321.429688 257.683594 Z M 312.554688 118.238281 C 311.660156 116.839844 310.671875 115.511719 309.628906 114.253906 C 311.351562 116.101562 312.878906 118.09375 314.246094 120.210938 C 313.707031 119.53125 313.132812 118.882812 312.554688 118.238281 Z M 300.628906 107.863281 C 295.832031 104.6875 290.140625 101.796875 283.441406 99.140625 L 283.402344 99.320312 C 283.207031 99.195312 283.027344 99.070312 282.828125 98.960938 C 282.828125 98.941406 282.953125 98.40625 282.992188 98.1875 C 286.457031 99.480469 289.65625 100.828125 292.617188 102.265625 C 295.421875 103.949219 298.113281 105.800781 300.613281 107.863281 Z M 288.59375 104.382812 C 288.8125 104.578125 288.992188 104.8125 289.207031 105.027344 C 287.355469 104.308594 285.488281 103.628906 283.621094 103.019531 C 283.582031 103.160156 283.566406 103.304688 283.53125 103.429688 C 282.703125 103.105469 281.859375 102.785156 281.015625 102.480469 C 281.015625 102.046875 281.03125 101.617188 281.03125 101.152344 C 283.296875 101.976562 285.578125 102.875 287.839844 103.859375 C 288.09375 104.039062 288.34375 104.21875 288.578125 104.398438 Z M 280.691406 103.105469 C 281.589844 103.519531 282.453125 103.988281 283.3125 104.453125 C 283.277344 104.6875 283.222656 104.9375 283.1875 105.171875 L 283.332031 105.242188 C 287.644531 107.523438 291.578125 110.484375 294.792969 114.074219 C 295.367188 114.683594 295.886719 115.3125 296.371094 115.941406 C 297.304688 118.417969 297.917969 120.964844 298.3125 123.585938 C 296.75 119.316406 294.324219 115.292969 290.625 111.722656 C 287.140625 108.257812 282.992188 105.511719 278.574219 103.503906 C 278.625 102.980469 278.644531 102.460938 278.660156 101.886719 C 279.308594 102.136719 279.9375 102.390625 280.585938 102.640625 C 280.585938 102.765625 280.546875 102.890625 280.53125 103.019531 L 280.675781 103.089844 Z M 295.457031 241.242188 C 294.398438 257.144531 283.117188 265.113281 268.585938 268.648438 C 266.5 268.882812 264.4375 269.078125 262.351562 269.242188 C 278.375 266.511719 291.988281 258.003906 295.457031 241.242188 Z M 288.199219 99.769531 C 286.53125 99.085938 284.824219 98.441406 283.0625 97.8125 C 283.097656 97.613281 283.132812 97.507812 283.1875 97.238281 C 284.859375 98.046875 286.53125 98.871094 288.199219 99.769531 Z M 279.917969 95.710938 C 280.996094 96.195312 282.074219 96.699219 283.152344 97.21875 C 283.117188 97.417969 283.0625 97.613281 283.027344 97.792969 C 282.039062 97.453125 281.070312 97.09375 280.0625 96.753906 L 279.828125 96.683594 C 279.847656 96.359375 279.882812 96.054688 279.917969 95.710938 Z M 275.105469 104.273438 L 275.894531 95.765625 L 279.417969 96.933594 C 279.378906 97.148438 279.328125 97.363281 279.289062 97.5625 L 279.433594 97.632812 C 280.761719 98.367188 282.039062 99.175781 283.277344 100.039062 L 283.132812 101.023438 C 283.800781 101.382812 284.464844 101.742188 285.09375 102.121094 C 283.671875 101.671875 282.238281 101.242188 280.800781 100.847656 C 280.726562 101.3125 280.65625 101.832031 280.585938 102.335938 C 279.867188 102.085938 279.148438 101.832031 278.429688 101.582031 C 278.304688 102.265625 278.160156 103.019531 278.070312 103.753906 L 278.214844 103.824219 C 282.578125 105.996094 286.566406 108.886719 289.871094 112.421875 C 295.941406 118.777344 298.132812 126.40625 298.78125 134.355469 C 298.726562 136.367188 298.601562 138.375 298.457031 140.367188 C 298.402344 138.503906 298.292969 136.6875 298.097656 134.949219 C 297.34375 119.890625 288.792969 109.710938 275.070312 104.257812 Z M 247.640625 266.925781 C 268.117188 266.871094 287.660156 259.367188 290.246094 236.519531 C 291.09375 228.621094 291.289062 219.738281 293.425781 212.128906 C 293.964844 209.722656 294.773438 207.570312 295.78125 205.628906 C 291.523438 217.40625 294.683594 231.90625 291.378906 243.859375 C 286.277344 260.660156 269.574219 266.511719 253.480469 267.894531 L 252.5625 267.984375 C 252.457031 268.703125 252.347656 269.617188 252.222656 270.496094 C 250.445312 270.496094 248.664062 270.496094 246.871094 270.441406 C 247.101562 269.332031 247.445312 267.695312 247.625 266.925781 Z M 247.640625 266.925781 " fill-opacity="1" fill-rule="nonzero"></path></g></svg>